# xmcd
#
# Track frame offsets:
#	150
#	41814
#	61862
#	84331
#	106449
#	119818
#	141049
#	161438
#	178609
#	194009
#	204064
#	243779
#
# Disc length: 3461 seconds
# Revision: 0
# Processed by: cddbd v1.5.2PL0 Copyright (c) Steve Scherf et al.
# Submitted via: dBpowerAMP V12.0
#
DISCID=a10d830c
DTITLE=Steppenwolf - For Ladies Only
DYEAR=1971
DGENRE=Bluesrock
TTITLE0=For Ladies Only
TTITLE1=I'm Asking
TTITLE2=Shackles and Chains
TTITLE3=Tendermess
TTITLE4=The Night Time´s For You
TTITLE5=Jaded Strumpet
TTITLE6=Sparkle Eyes
TTITLE7=Black Pit
TTITLE8=Ride With Me
TTITLE9=In Hopes of A Garden
TTITLE10=For Madmen Only
TTITLE11=For Ladies Only [Bonus]
EXTD=
EXTT0=
EXTT1=
EXTT2=
EXTT3=
EXTT4=
EXTT5=
EXTT6=
EXTT7=
EXTT8=
EXTT9=
EXTT10=
EXTT11=
PLAYORDER=
